
<svg version="1.1" id="Calque_1" xmlns="http://www.w3.org/2000/svg" xmlns:xlink="http://www.w3.org/1999/xlink" x="0px" y="0px"
	 viewBox="0 0 425.2 425.2" style="enable-background:new 0 0 425.2 425.2;" xml:space="preserve">
<style type="text/css">
	.st0{fill:#FFFFFF;}
	.st1{fill:#43BA96;}
</style>
<circle class="st0" cx="213.2" cy="212.6" r="211"/>
<g>
	<g>
		<path class="st1" d="M190.4,155.67c7.26-12.56,23.39-16.89,35.95-9.63c12.57,7.26,16.9,23.39,9.64,35.96
			c-7.27,12.56-23.39,16.89-35.96,9.63C187.46,184.38,183.14,168.25,190.4,155.67z"/>
		<path class="st1" d="M300.7,168.84c0,48.32-39.17,87.51-87.51,87.51s-87.51-39.18-87.51-87.51c0-22.2,8.26-42.46,21.88-57.89v46.7
			c0.01,7.11,0,18.13,1.88,26.77c1.31,5.94,3.72,11.7,6.91,17.22c1.69,2.92,3.5,5.71,5.62,8.34c0,0,5.7,7.16,12.77,11.96
			c-7.85-6.26-15.18-20.76-17.83-37.21c-2.07-12.81-1.1-26.84,4.14-38.82c4.57-10.44,12.28-19.38,21.96-25.41
			c0.55-0.35,1.11-0.68,1.68-1.02c27.22-15.7,62.13-6.35,77.83,20.86c9.88,17.12,10.12,38.54,0.63,55.89
			c-6.36,11.61-16.47,20.73-27.74,25.01c-12.61,4.79-26.92,3.65-36.48-2.9c-10.75-7.35-15.12-19.81-15.81-31.68
			c2.96,5.01,7.2,9.34,12.59,12.46c5.49,3.17,11.49,4.68,17.43,4.68c12.09,0,23.87-6.28,30.34-17.48
			c9.64-16.71,3.9-38.14-12.8-47.78c-4.5-2.59-9.56-4.17-14.74-4.57c-5.04-0.39-10.14,0.34-14.88,2.08
			c-4.77,1.77-9.15,4.57-12.73,8.2c-3.02,3.05-5.45,6.64-7.4,10.46c-1.98,3.86-3.47,7.96-4.54,12.15
			c-2.01,7.85-2.51,16.22-1.55,24.3c0.92,7.64,3.22,15.2,7.28,21.78c3.05,4.96,7.1,9.28,11.92,12.56
			c7.13,4.89,16.03,7.38,25.32,7.38c6.34,0,12.87-1.17,19.12-3.54c13.18-5.01,24.93-15.56,32.25-28.95
			c10.94-19.99,10.67-44.66-0.71-64.37c-16.87-29.22-52.95-40.55-83.16-27.29V85.37c8.31-2.62,17.16-4.03,26.33-4.03
			C261.53,81.34,300.7,120.51,300.7,168.84z"/>
	</g>
	<g>
		<path class="st1" d="M178.22,113.33V65.71c-7.76,2.62-15.12,6.08-21.99,10.27v60.36C161.4,127.23,168.81,119.26,178.22,113.33z"/>
	</g>
</g>
<g>
	<path class="st1" d="M175.37,331.36c-0.96,0.92-2.17,1.38-3.65,1.38h-42c0.81,5.16,3.15,9.32,7.02,12.49
		c3.87,3.17,8.6,4.75,14.2,4.75c2.21,0,4.51-0.4,6.91-1.21c2.39-0.81,3.83-1.5,5.73-2.61c0.99-0.58,2.02-1.2,3.16-1.47
		c1.16-0.27,2.39-0.06,3.41,0.56c0.68,0.42,1.26,0.99,1.68,1.67c0.76,1.19,0.81,2.55,0.34,3.86c-0.39,1.06-1.32,2.01-2.26,2.65
		c-2.4,1.63-4.97,3.06-8.29,4.18c-3.72,1.26-7.28,1.88-10.67,1.88c-6.04,0-11.46-1.31-16.25-3.92c-4.79-2.62-8.53-6.25-11.22-10.89
		s-4.03-9.91-4.03-15.81s1.27-11.18,3.81-15.86s6.08-8.33,10.61-10.94c4.53-2.62,9.67-3.92,15.42-3.92c5.67,0,10.57,1.25,14.7,3.76
		s7.29,6.01,9.51,10.5s3.32,9.65,3.32,15.47C176.8,329.28,176.32,330.44,175.37,331.36z M136.19,312.07
		c-3.35,2.95-5.47,6.89-6.36,11.83h36.81c-0.66-4.94-2.51-8.88-5.53-11.83c-3.02-2.95-6.96-4.42-11.83-4.42
		C143.9,307.65,139.54,309.12,136.19,312.07z"/>
	<path class="st1" d="M223.39,300.46c3.79,1.55,6.8,3.69,9.01,6.41c0.95,1.18,1.44,2.36,1.44,3.54c0,2.08-1.69,3.77-3.69,4.11
		c-2.37,0.4-4.13-1.21-5.96-2.43c-4.36-2.89-9-4.24-13.9-4.24c-2.83,0-5.91,0.34-8.39,1.82c-2.92,1.74-4.24,5.65-2.11,8.53
		c0.74,0.99,2.13,1.92,4.2,2.76c2.06,0.85,5.09,1.62,8.95,2.62c8.01,2.07,13.72,3.74,17.08,6.61c3.35,2.87,5.03,6.6,5.03,11.16
		c0,3.39-0.92,6.47-2.76,9.23s-4.55,4.94-8.12,6.52c-3.58,1.58-7.87,2.37-12.88,2.37c-5.01,0-9.73-0.77-14.15-2.32
		s-7.88-3.57-10.39-6.08c-2.26-2.26-1.67-5.9,0.78-7.74c1.1-0.82,2.45-1.26,3.85-1.1c2.43,0.27,4.14,2.01,6.11,3.27
		c1.4,0.9,2.87,1.68,4.41,2.31c2.8,1.14,5.78,1.71,8.95,1.71c4.2,0,7.46-0.7,9.78-2.1c2.32-1.4,3.48-3.28,3.48-5.63
		c0-2.28-1.14-4.18-3.42-5.69c-2.29-1.51-6.06-2.53-11.61-3.81c-14.04-3.25-21.22-8.55-21.22-17.47c0-3.61,1.07-6.67,3.2-9.17
		c2.14-2.5,4.94-4.38,8.4-5.63c3.46-1.25,7.15-1.88,11.05-1.88C215.3,298.14,219.59,298.92,223.39,300.46z"/>
	<path class="st1" d="M251.69,271.98c1.62,0,2.96,0.52,4.04,1.55c1.07,1.03,1.6,2.4,1.6,4.09v30.58c2.58-3.17,5.71-5.63,9.4-7.4
		c3.68-1.77,7.66-2.65,11.93-2.65c5.31,0,10.11,1.33,14.43,3.98c4.31,2.65,7.7,6.32,10.17,11s3.7,9.89,3.7,15.64
		s-1.33,10.96-3.98,15.64c-2.65,4.68-6.32,8.36-11,11.05s-9.86,4.03-15.53,4.03s-10.81-1.34-15.42-4.03
		c-4.61-2.69-8.26-6.37-10.94-11.05c-2.69-4.68-4.04-9.89-4.04-15.64v-51.14c0-1.69,0.52-3.06,1.55-4.09
		C248.63,272.5,249.99,271.98,251.69,271.98z M276.44,349.54c3.69,0,7.02-0.9,10-2.71c2.98-1.8,5.34-4.29,7.07-7.46
		c1.73-3.17,2.6-6.7,2.6-10.61c0-3.9-0.87-7.42-2.6-10.55c-1.73-3.13-4.09-5.6-7.07-7.4c-2.98-1.81-6.32-2.71-10-2.71
		c-3.69,0-7.02,0.9-10,2.71c-2.99,1.81-5.32,4.27-7.02,7.4c-1.7,3.13-2.54,6.65-2.54,10.55c0,3.91,0.85,7.44,2.54,10.61
		c1.69,3.17,4.03,5.66,7.02,7.46C269.43,348.64,272.76,349.54,276.44,349.54z"/>
</g>
</svg>
